<svg xmlns="http://www.w3.org/2000/svg" width="24" height="24" viewBox="0 0 24 24"><path fill="#1d9bf0" d="M22.46 6c-.77.35-1.6.58-2.46.69c.89-.53 1.57-1.37 1.89-2.37c-.83.49-1.75.85-2.72 1.05c-.78-.83-1.9-1.35-3.13-1.35c-2.37 0-4.28 1.92-4.28 4.28c0 .34.04.68.11 1c-3.55-.18-6.7-1.88-8.81-4.47c-.37.63-.58 1.37-.58 2.15c0 1.48.75 2.79 1.89 3.55c-.69-.02-1.34-.21-1.91-.53v.05c0 2.06 1.46 3.78 3.39 4.17c-.36.1-.75.16-1.14.16c-.28 0-.55-.03-.81-.08c.55 1.73 2.16 2.98 4.06 3.02c-1.49 1.17-3.37 1.87-5.41 1.87c-.35 0-.7-.02-1.04-.06c1.93 1.24 4.21 1.96 6.66 1.96c8 0 12.37-6.62 12.37-12.37l-.01-.56c.85-.6 1.59-1.35 2.18-2.21z"/></svg>